<svg width="627.262695" height="682.499939" viewBox="0 0 627.263 682.5" fill="none" xmlns="http://www.w3.org/2000/svg" xmlns:xlink="http://www.w3.org/1999/xlink">
	<path id="line1" d="M227.77 246.3L419.966 0.299988L454.229 0.299988L241 273.221L240.915 273.331L52 273.3L52 0.299988L79 0.299988L79 246.3L227.77 246.3Z" fill-rule="evenodd" fill="#B6C303"/>
	<path id="line2" d="M476.81 6.10352e-05L245.55 296L37 296L37 0L0 0L0 682L37 682L37 333L250.613 333L523.281 682L570.235 682L280.581 311.26L523.764 6.10352e-05L476.81 6.10352e-05Z" fill-rule="evenodd" fill="#00A4D5"/>
	<path id="line3" d="M52 682.3L79 682.3L79 377.432L228.21 377.432L466.399 682.3L500.662 682.3L241.378 350.432L240.771 350.432L79 350.432L79 350.3L52 350.3L52 682.3Z" fill-rule="evenodd" fill="#B6C303"/>
	<path id="line4" d="M303 311.304L545.833 0.5L580.096 0.5L337.261 311.315L627.263 682.5L592.999 682.5L303 311.304Z" fill-rule="evenodd" fill="#F95E5E"/>
	<defs/>
</svg>
